<?xml version="1.0" standalone="no"?><!DOCTYPE svg PUBLIC "-//W3C//DTD SVG 1.1//EN" "http://www.w3.org/Graphics/SVG/1.1/DTD/svg11.dtd"><svg class="icon" width="16px" height="15.86px" viewBox="0 0 1033 1024" version="1.1" xmlns="http://www.w3.org/2000/svg"><path d="M943.897988 772.004835c-5.238412 83.722683-66.720821 162.942169-159.633699 194.372638a247.583872 247.583872 0 0 1-71.775428 13.325784A264.585734 264.585734 0 0 1 450.660186 997.440334c-89.972016 38.139312-205.584677 7.903568-281.128085-80.78182a287.285517 287.285517 0 0 1-47.145704-76.738133C53.551831 801.505363 5.487108 724.032013 1.902931 634.151899A242.437362 242.437362 0 0 0 119.813142 813.085009a284.896066 284.896066 0 0 0 47.053802 76.738134c75.63531 88.593486 191.247972 118.921132 281.128086 80.78182a258.887812 258.887812 0 0 0 154.395287 23.526901 262.012479 262.012479 0 0 0 107.433387-41.35588 254.476518 254.476518 0 0 0 71.683527-13.325784c92.912878-31.430469 154.303385-110.282348 159.633699-194.464541a200.438168 200.438168 0 0 0 32.349488-110.282348A197.129697 197.129697 0 0 1 943.897988 772.004835z" fill="#F4B04D" /><path d="M973.858026 634.151899a200.438168 200.438168 0 0 1-32.349489 110.282349c-5.330313 83.814585-66.720821 163.034071-159.633699 194.46454a254.476518 254.476518 0 0 1-71.775428 13.325784 262.012479 262.012479 0 0 1-107.433387 41.35588 258.887812 258.887812 0 0 1-154.395288-23.526901c-89.880114 38.139312-205.492775 7.811666-281.128085-80.78182A284.896066 284.896066 0 0 1 119.813142 813.085009 242.437362 242.437362 0 0 1 1.902931 634.151899v-10.844431q0-12.314862 1.102824-24.262116c64.607076 111.109466 243.26448 199.243442 458.590764 213.396344 66.077507 4.319392 126.089485-4.870804 184.355325-14.888117a13.233882 13.233882 0 0 1 15.255725 9.925411 1.838039 1.838039 0 0 1 0 0.643314 44.204841 44.204841 0 0 0 87.306859 9.833509 46.50239 46.50239 0 0 0 0.643314-16.266646 22.883587 22.883587 0 0 1 15.347627-24.997333c101.092152-34.463234 176.267953-90.523427 205.860383-158.898483 1.470431 5.514117 2.573255 11.028235 3.492274 16.358548z" fill="#FFC255" /><path d="M970.365752 617.885253c-29.59243 68.375056-104.584427 124.435249-205.860383 158.898483a22.791685 22.791685 0 0 0-15.347627 24.997333 46.594292 46.594292 0 0 1-0.643314 16.174744 44.204841 44.204841 0 0 1-87.214957-9.925411 1.838039 1.838039 0 0 0 0-0.643314 13.233882 13.233882 0 0 0-15.255725-9.925411c-58.265841 10.017313-118.185916 19.207509-184.355325 14.888117C246.270234 798.196892 67.61283 710.154818 2.730049 598.677744c0.643314-7.444058 1.654235-14.796215 2.848961-22.05647a250.524734 250.524734 0 0 1 67.731742-133.349739C108.968711 362.030205 184.144512 306.061914 271.267567 306.061914c121.310583 0 219.645677 108.720015 219.645676 242.896871a270.743165 270.743165 0 0 1-4.870803 51.465096 266.515675 266.515675 0 0 1 53.57884-13.877195c6.341235-0.91902 12.68247-1.654235 19.023705-2.113745a241.977852 241.977852 0 0 1 127.559916-98.335094 236.371833 236.371833 0 0 1 202.184305 21.045548 186.92858 186.92858 0 0 1 77.93286 98.15129c1.746137 4.22749 2.940863 8.363078 4.043686 12.590568z" fill="#F4B04D" /><path d="M573.349299 244.947112C763.126839 295.952698 894.362834 408.900203 880.853246 523.869551c-15.99094 136.1987-231.776735 223.137951-481.933861 193.729325C216.769706 696.18572 66.601909 618.988077 4.65999 525.799492 35.630949 657.035487 228.533157 767.961148 469.040578 783.768285c63.779958 4.22749 121.678191-4.687 177.922188-14.336705a12.774372 12.774372 0 0 1 14.704313 9.190195 1.838039 1.838039 0 0 1 0 0.643314 42.642508 42.642508 0 0 0 84.182192 9.190196 45.950978 45.950978 0 0 0 0.643314-15.715235 21.872666 21.872666 0 0 1 14.796215-24.078312c122.872916-41.81539 205.768481-116.623583 211.374501-206.595599 9.006392-136.933916-164.87211-262.747694-399.314002-297.119027z" fill="#FFE69F" /><path d="M398.919385 717.598876c250.157126 29.408626 465.942921-57.530625 481.933861-194.188835C894.362834 408.900203 763.126839 295.952698 573.349299 244.947112a909.73747 909.73747 0 0 0-68.742664-7.260254C236.252921 219.94978 10.633617 327.934579 0.340598 478.745691a158.714679 158.714679 0 0 0 3.951784 47.053801c62.309527 93.188584 212.477324 170.386228 394.627003 191.799384z" fill="#FCF2B3" /><path d="M41.236969 506.132474c36.760783 58.909154 100.173133 104.492525 162.206954 132.430719a572.641093 572.641093 0 0 0 230.490107 48.891841c33.544214 0 65.617997-29.59243 64.33137-64.331369a65.250389 65.250389 0 0 0-64.33137-64.33137 569.792132 569.792132 0 0 1-61.298605-4.503196c6.341235 0.735216 6.525039 0.91902 0 0s-10.109215-1.562333-15.071921-2.481353c-10.752529-1.929941-21.321254-4.043686-31.889979-6.616941a404.920022 404.920022 0 0 1-62.033821-19.575117 425.414158 425.414158 0 0 1-54.681664-30.879057c-4.22749-2.848961-8.45498-5.881725-12.590568-9.190196-6.249333-4.503196 5.881725 5.330313-2.848961-2.297549-6.249333-5.514117-12.590568-10.844431-18.380391-16.634254-8.546882-8.271176-15.531431-19.115607-24.445921-26.743469 4.595098 3.859882 9.925411 13.233882 3.492275 4.135588-0.735216-1.010922-1.470431-2.113745-2.113745-3.216569A65.434193 65.434193 0 0 0 64.671968 418.458007a64.882781 64.882781 0 0 0-22.975489 87.674467z" fill="#FCFACA" /><path d="M85.258006 452.369829m-39.517841 0a39.517841 39.517841 0 1 0 79.035683 0 39.517841 39.517841 0 1 0-79.035683 0Z" fill="#FFFFFF" /><path d="M94.172496 533.611159m-19.942725 0a19.942725 19.942725 0 1 0 39.88545 0 19.942725 19.942725 0 1 0-39.88545 0Z" fill="#FFFFFF" /><path d="M1030.653435 397.596263a179.484522 179.484522 0 0 1-16.726156 50.821782l-0.551411 3.124666C994.903574 560.630334 878.923305 631.394841 753.936644 609.338371a257.325479 257.325479 0 0 1-86.020232-31.430469 248.135283 248.135283 0 0 1-142.172327 15.623333c-79.954702-14.520509-144.286072-63.504252-174.889424-126.089485a255.211734 255.211734 0 0 1-93.096682 0C141.593906 447.407123 58.974047 353.575225 63.201537 252.483073 73.862164 342.455089 151.335513 421.398869 256.655156 440.054967A255.671244 255.671244 0 0 0 349.568034 439.503555C380.447091 502.088788 444.778461 551.440138 525.008869 565.684942a248.135283 248.135283 0 0 0 142.264229-15.715235 257.325479 257.325479 0 0 0 86.020232 31.522371c124.619053 22.05647 240.599323-48.616135 259.071616-157.887562l0.551412-3.124666a181.873972 181.873972 0 0 0 16.726156-50.72988 166.342542 166.342542 0 0 0 2.297549-22.05647 175.16513 175.16513 0 0 1-1.286628 49.902763z" fill="#F4B04D" /><path d="M1031.940063 347.6935a166.342542 166.342542 0 0 1-2.297549 22.05647 181.873972 181.873972 0 0 1-16.726156 50.72988l-0.551412 3.124666c-18.380391 109.271427-134.452563 179.944031-259.071616 157.887562a257.325479 257.325479 0 0 1-86.020232-31.522371 248.135283 248.135283 0 0 1-142.264229 15.715235C444.778461 551.440138 380.447091 502.088788 349.568034 439.503555a255.671244 255.671244 0 0 1-93.188584 0.551412c-105.319642-18.380391-183.068698-97.599878-192.99411-187.571894a164.596405 164.596405 0 0 1 2.297549-22.148372c18.380391-109.271427 134.544465-179.944031 259.163518-157.887561 7.719764 1.378529 15.255725 3.032765 22.699784 5.054607C385.042189 15.835534 499.184419-15.135425 625.273904 7.288652 749.52535 29.345122 845.8386 95.698335 863.299972 165.45192c92.820976 25.732548 159.266091 99.346015 168.640091 182.24158z" fill="#FFC255" /><path d="M144.350964 155.250803a37.863606 36.944587 90 1 0 73.889174 0 37.863606 36.944587 90 1 0-73.889174 0Z" fill="#FFFFFF" /><path d="M474.187087 57.92663a36.944587 25.456842 0 1 0 73.889173 0 36.944587 25.456842 0 1 0-73.889173 0Z" fill="#FFFFFF" /><path d="M400.022208 150.655705A9.190196 9.190196 0 0 1 413.899404 140.362686c18.380391 18.380391 37.404096 44.940057 37.771704 76.830036a263.758616 263.758616 0 0 1-7.352157 76.186722 9.190196 9.190196 0 0 1-17.277568-2.848961 320.554025 320.554025 0 0 0-27.019175-139.874778zM484.755812 298.066443a9.190196 9.190196 0 0 1-5.422215-16.90996c22.332175-12.406764 52.935527-23.343097 82.711761-14.336705a251.535656 251.535656 0 0 1 69.110271 29.59243A9.190196 9.190196 0 0 1 623.435865 312.495051a299.416575 299.416575 0 0 0-138.680053-14.428608zM674.441451 288.96815a9.190196 9.190196 0 0 1-16.90996-4.043686c1.286627-26.008254 8.179274-58.357743 31.246665-79.770899a257.325479 257.325479 0 0 1 60.747194-44.848155 9.190196 9.190196 0 0 1 9.190195 15.163823 313.018065 313.018065 0 0 0-84.274094 113.498917zM476.484636 843.136949c7.99547 22.975489 15.99094 70.488801-29.13292 117.358799a1.654235 1.654235 0 0 1-2.848961-1.746137 346.746083 346.746083 0 0 0 25.82445-114.60174 3.124667 3.124667 0 0 1 6.157431-1.010922zM658.358609 844.699282c-2.021843 15.715235-3.76798 59.920076 33.544214 82.711761a3.032765 3.032765 0 0 0 4.135588-4.319392 240.783127 240.783127 0 0 1-35.566057-78.94378 1.102823 1.102823 0 0 0-2.113745 0.551411zM195.724158 764.468874c-16.634254 9.190196-46.686194 26.559666-61.666213 45.950978a5.238412 5.238412 0 0 1-9.190195-3.859882c2.757059-21.505058 16.174744-50.546076 69.294075-48.891841a3.676078 3.676078 0 0 1 1.562333 6.800745z" fill="#F4B04D" /></svg>